<svg xmlns="http://www.w3.org/2000/svg" viewBox="0,0,201,60"><path fill="#000" d="M81.639 28.966c2.891 0 4.75-1.725 4.75-4.76 0-2.896-1.24-4.62-5.507-4.62h-4.13v9.38h4.887zm-10.325-14.07h9.637c3.235 0 4.75.276 6.057.828 2.96 1.38 4.888 4.207 4.888 8.207 0 3.586-1.928 6.897-5.025 8.207v.069s.413.414 1.032 1.448l6.126 11.173h-6.057l-5.92-11.173h-5.231v11.173h-5.438V14.897h-.07zM97.884 23.38h5.37v12.758c0 2.62.688 4.414 3.304 4.414 3.854 0 6.057-3.449 6.057-7.242v-9.93h5.37v21.517h-5.163v-2.483c0-.828.068-1.517.068-1.517h-.068c-1.033 2.206-3.786 4.482-7.435 4.482-4.612 0-7.434-2.345-7.434-8.207V23.38h-.069zM134.436 40.897c2.96 0 5.37-2.414 5.37-6.69 0-4.07-2.204-6.759-5.37-6.759-2.753 0-5.37 2-5.37 6.828 0 3.31 1.79 6.62 5.37 6.62zm-10.532-26h5.37v9.24c0 1.035-.07 1.794-.07 1.794h.07s1.927-3.103 6.47-3.103c5.782 0 9.5 4.62 9.5 11.241 0 6.828-4.2 11.241-9.844 11.241-4.475 0-6.402-3.241-6.402-3.241h-.069s.069.62.069 1.448v1.242h-5.094V14.897zM149.649 23.38h5.369v21.517h-5.37V23.379zm0-8.483h5.3v4.758h-5.3v-4.758zM170.988 22.828c5.575 0 8.26 3.241 8.26 3.241l-2.34 3.655s-2.203-2.345-5.576-2.345c-3.993 0-6.54 2.966-6.54 6.69 0 3.655 2.616 6.759 6.678 6.759 3.648 0 6.332-2.759 6.332-2.759l2.065 3.793s-3.097 3.517-8.88 3.517c-7.09 0-11.701-5.034-11.701-11.241 0-6.138 4.612-11.31 11.702-11.31M190.675 41.241c2.822 0 4.818-3.034 4.818-5.655v-.483h-.895c-2.753 0-7.159.414-7.159 3.38 0 1.38 1.033 2.758 3.236 2.758m4.061-9.862h.688v-.276c0-2.827-1.79-3.793-4.13-3.793-3.097 0-5.92 2.07-5.92 2.07l-1.996-3.863s3.304-2.69 8.398-2.69c5.645 0 8.949 3.104 8.949 8.552v13.449h-4.957v-1.794c0-.827.07-1.517.07-1.517h-.07c.07 0-1.652 3.793-6.539 3.793-3.855 0-7.296-2.413-7.296-6.69.068-6.758 9.361-7.24 12.803-7.24"/><path fill="#FF1606" d="M51.42 44.897L45.776 28c1.927-.483 3.235-2.414 3.235-5.448 0-4.897-3.373-10.828-7.572-13.242L25.745.276V29.93L51.42 44.897z"/><path fill="#B4E13D" d="M25.745.207L0 15.103v29.725L25.745 29.93z"/><path fill="#021A76" d="M0 44.828l25.745 14.896L51.42 44.828 25.745 29.93z"/></svg>