<?xml version="1.0" encoding="utf-8"?>
<!-- Generator: Adobe Illustrator 24.0.1, SVG Export Plug-In . SVG Version: 6.00 Build 0)  -->
<svg version="1.1" id="Layer_1" xmlns="http://www.w3.org/2000/svg" xmlns:xlink="http://www.w3.org/1999/xlink" x="0px" y="0px"
	 viewBox="0 0 453.54 127.56" style="enable-background:new 0 0 453.54 127.56;" xml:space="preserve">
<style type="text/css">
	.st0{fill-rule:evenodd;clip-rule:evenodd;fill:url(#SVGID_1_);}
	.st1{fill-rule:evenodd;clip-rule:evenodd;fill:url(#SVGID_2_);}
	.st2{fill-rule:evenodd;clip-rule:evenodd;}
	.st3{fill-rule:evenodd;clip-rule:evenodd;fill:url(#SVGID_3_);}
	.st4{fill-rule:evenodd;clip-rule:evenodd;fill:url(#SVGID_4_);}
	.st5{fill:url(#SVGID_5_);}
	.st6{fill-rule:evenodd;clip-rule:evenodd;fill:url(#SVGID_6_);}
	.st7{fill-rule:evenodd;clip-rule:evenodd;fill:url(#SVGID_7_);}
</style>
<g>
	<linearGradient id="SVGID_1_" gradientUnits="userSpaceOnUse" x1="198.3812" y1="51.3447" x2="198.3812" y2="114.4899">
		<stop  offset="0" style="stop-color:#008FD7"/>
		<stop  offset="1" style="stop-color:#004D9F"/>
	</linearGradient>
	<path class="st0" d="M212.16,82.42c-5.49,2.96-20.09,5.68-22.26-7.88c-2.28-14.29,11.84-16.56,18.15-13.96c0,2.34,0,5.05,0,5.05
		s3.09,0.5,5.17,0.28c0.39-2.5,1.53-6.94,1.34-8.84c-11.78-8.3-33.79-2.41-32.31,17.78c1.48,20.19,24.93,19.8,32.31,10.99
		C213.54,84.32,212.72,83.16,212.16,82.42z"/>
	<linearGradient id="SVGID_2_" gradientUnits="userSpaceOnUse" x1="235.3403" y1="51.344" x2="235.3403" y2="114.4913">
		<stop  offset="0" style="stop-color:#008FD7"/>
		<stop  offset="1" style="stop-color:#004D9F"/>
	</linearGradient>
	<path class="st1" d="M226.96,77.7c2.61-0.1,13.89-1.04,20.38-4.56c7.39-4.09,5.88-13.16,2.24-15.97
		c-10.96-8.76-32.64-1.36-31.45,17.69c1.24,20,24.93,19.8,32.31,10.99c-1.02-1.53-1.84-2.68-2.4-3.42
		C243.11,85.08,230.52,88.08,226.96,77.7z M241.71,61.16c2.97,1.39,3.2,3.3,3.31,3.91c0.11,0.61-0.43,2.06-1.74,2.99
		c-3.15,2.21-8.87,3.77-17.14,4.2C226.13,61.71,236.98,58.96,241.71,61.16z"/>
	<g>
		<path d="M283.14,35.01l-1.46,4.04c-0.05,0.13-0.17,0.23-0.37,0.3c-0.2,0.07-0.5,0.1-0.91,0.1c-0.21,0-0.38-0.01-0.51-0.03
			c-0.13-0.02-0.23-0.05-0.3-0.1c-0.07-0.05-0.11-0.11-0.12-0.2c-0.01-0.08,0.01-0.18,0.06-0.29l1.51-3.82
			c-0.07-0.03-0.14-0.09-0.21-0.16c-0.07-0.07-0.11-0.15-0.13-0.23l-3.92-10.49c-0.07-0.17-0.1-0.31-0.1-0.4
			c0-0.1,0.03-0.17,0.1-0.23c0.06-0.06,0.17-0.1,0.32-0.12c0.15-0.02,0.34-0.03,0.58-0.03c0.24,0,0.44,0.01,0.57,0.02
			c0.14,0.01,0.25,0.03,0.33,0.07c0.08,0.03,0.14,0.08,0.18,0.14c0.04,0.06,0.07,0.14,0.12,0.25l3.13,8.81h0.04l3.02-8.86
			c0.05-0.15,0.11-0.25,0.18-0.3c0.07-0.04,0.17-0.08,0.31-0.1c0.14-0.02,0.34-0.03,0.6-0.03c0.23,0,0.41,0.01,0.56,0.03
			c0.15,0.02,0.25,0.06,0.32,0.12c0.07,0.06,0.1,0.13,0.1,0.23c0,0.1-0.02,0.22-0.07,0.37L283.14,35.01z"/>
		<path d="M297.43,34.7c0,0.07-0.02,0.12-0.05,0.16c-0.03,0.05-0.08,0.08-0.16,0.12c-0.07,0.03-0.17,0.06-0.31,0.07
			c-0.13,0.02-0.29,0.02-0.49,0.02c-0.2,0-0.36-0.01-0.49-0.02c-0.13-0.02-0.24-0.04-0.32-0.07c-0.08-0.03-0.13-0.07-0.16-0.12
			c-0.03-0.04-0.04-0.1-0.04-0.16v-4.42c-0.46,0.2-0.94,0.36-1.45,0.48c-0.51,0.12-1.06,0.18-1.65,0.18c-0.76,0-1.39-0.1-1.89-0.29
			c-0.5-0.2-0.91-0.46-1.21-0.81c-0.3-0.34-0.51-0.75-0.64-1.22c-0.13-0.47-0.19-1.06-0.19-1.78v-3.12c0-0.06,0.01-0.12,0.04-0.16
			c0.03-0.04,0.08-0.08,0.16-0.12c0.08-0.04,0.19-0.06,0.31-0.07c0.13-0.01,0.29-0.02,0.48-0.02c0.2,0,0.37,0.01,0.5,0.02
			c0.13,0.01,0.23,0.04,0.31,0.07c0.07,0.04,0.13,0.08,0.16,0.12c0.04,0.04,0.05,0.1,0.05,0.16v2.81c0,0.66,0.05,1.15,0.15,1.48
			c0.1,0.33,0.24,0.58,0.43,0.77c0.19,0.19,0.42,0.33,0.69,0.4c0.27,0.08,0.59,0.12,0.96,0.12c0.48,0,0.95-0.06,1.41-0.18
			c0.46-0.12,0.92-0.3,1.37-0.52v-4.87c0-0.06,0.01-0.12,0.04-0.16c0.03-0.04,0.08-0.08,0.16-0.12c0.08-0.04,0.18-0.06,0.32-0.07
			c0.13-0.01,0.3-0.02,0.49-0.02c0.2,0,0.36,0.01,0.49,0.02c0.13,0.01,0.23,0.04,0.31,0.07c0.07,0.04,0.13,0.08,0.16,0.12
			c0.03,0.04,0.05,0.1,0.05,0.16V34.7z"/>
		<path d="M310.53,28.74c0,0.32-0.08,0.54-0.24,0.68c-0.16,0.13-0.34,0.2-0.54,0.2h-7.23c0,0.61,0.06,1.16,0.18,1.65
			c0.12,0.49,0.33,0.91,0.61,1.26c0.29,0.35,0.66,0.62,1.12,0.81c0.46,0.19,1.02,0.28,1.68,0.28c0.52,0,0.99-0.04,1.4-0.13
			c0.41-0.09,0.76-0.18,1.06-0.29c0.3-0.11,0.54-0.2,0.74-0.29c0.19-0.08,0.34-0.13,0.44-0.13c0.06,0,0.11,0.01,0.15,0.04
			c0.05,0.03,0.08,0.07,0.1,0.13c0.02,0.06,0.04,0.14,0.05,0.24c0.01,0.1,0.02,0.23,0.02,0.37c0,0.11,0,0.2-0.01,0.27
			c-0.01,0.08-0.02,0.15-0.03,0.21c-0.01,0.06-0.03,0.12-0.06,0.16c-0.03,0.05-0.07,0.1-0.11,0.14c-0.05,0.04-0.18,0.12-0.4,0.22
			c-0.22,0.1-0.5,0.2-0.85,0.3c-0.35,0.1-0.75,0.19-1.21,0.26c-0.46,0.08-0.95,0.12-1.47,0.12c-0.9,0-1.69-0.13-2.37-0.38
			c-0.68-0.25-1.25-0.63-1.71-1.12c-0.46-0.5-0.81-1.12-1.05-1.87c-0.24-0.75-0.35-1.62-0.35-2.61c0-0.94,0.12-1.79,0.37-2.54
			c0.25-0.75,0.6-1.39,1.06-1.92c0.46-0.52,1.02-0.93,1.67-1.21c0.65-0.28,1.38-0.42,2.18-0.42c0.86,0,1.6,0.14,2.2,0.42
			c0.61,0.28,1.1,0.65,1.5,1.12c0.39,0.47,0.68,1.02,0.86,1.65c0.18,0.63,0.27,1.3,0.27,2.02V28.74z M308.5,28.14
			c0.02-1.06-0.21-1.89-0.7-2.49c-0.5-0.6-1.23-0.9-2.2-0.9c-0.5,0-0.94,0.09-1.31,0.28c-0.38,0.19-0.69,0.44-0.94,0.74
			c-0.25,0.31-0.45,0.67-0.59,1.08c-0.14,0.41-0.22,0.84-0.23,1.29H308.5z"/>
		<path d="M323.83,29.04c0,0.92-0.13,1.76-0.38,2.51c-0.25,0.76-0.62,1.41-1.1,1.96c-0.48,0.55-1.06,0.97-1.75,1.27
			c-0.69,0.3-1.46,0.45-2.33,0.45c-0.89,0-1.67-0.14-2.32-0.43c-0.66-0.29-1.2-0.72-1.62-1.31c-0.43-0.58-0.74-1.31-0.95-2.18
			c-0.2-0.87-0.3-1.9-0.3-3.08c0-1,0.05-1.92,0.14-2.76c0.09-0.84,0.23-1.6,0.4-2.27c0.17-0.67,0.38-1.24,0.61-1.71
			c0.24-0.47,0.48-0.85,0.73-1.12c0.25-0.28,0.49-0.5,0.73-0.66c0.24-0.17,0.51-0.32,0.8-0.46c0.29-0.14,0.62-0.27,0.99-0.37
			c0.37-0.1,0.79-0.2,1.25-0.28l3.92-0.65c0.14-0.02,0.25-0.04,0.34-0.03c0.09,0,0.16,0.04,0.21,0.1c0.05,0.06,0.08,0.16,0.1,0.3
			c0.02,0.14,0.03,0.33,0.03,0.57c0,0.16-0.01,0.3-0.03,0.42c-0.02,0.11-0.04,0.21-0.09,0.28c-0.04,0.07-0.1,0.13-0.18,0.17
			c-0.08,0.04-0.19,0.07-0.32,0.1l-3.65,0.61c-0.37,0.06-0.69,0.12-0.96,0.19c-0.28,0.07-0.52,0.15-0.74,0.24
			c-0.21,0.09-0.4,0.19-0.57,0.3c-0.16,0.11-0.32,0.25-0.49,0.42c-0.16,0.17-0.31,0.38-0.45,0.63c-0.13,0.25-0.25,0.54-0.34,0.86
			c-0.09,0.32-0.17,0.67-0.23,1.05c-0.06,0.38-0.12,0.78-0.18,1.21c0.27-0.28,0.55-0.54,0.86-0.77c0.3-0.23,0.62-0.43,0.95-0.59
			c0.33-0.16,0.68-0.29,1.06-0.37c0.37-0.08,0.76-0.13,1.18-0.13c0.79,0,1.48,0.13,2.07,0.4c0.59,0.26,1.08,0.64,1.46,1.13
			c0.39,0.49,0.67,1.07,0.87,1.76C323.73,27.47,323.83,28.22,323.83,29.04z M321.74,29.21c0-0.54-0.05-1.05-0.15-1.54
			c-0.1-0.49-0.26-0.92-0.49-1.29c-0.22-0.37-0.52-0.67-0.9-0.89c-0.38-0.22-0.84-0.34-1.4-0.34c-0.34,0-0.66,0.04-0.96,0.13
			c-0.3,0.08-0.59,0.22-0.87,0.39c-0.28,0.18-0.57,0.39-0.85,0.65c-0.29,0.26-0.59,0.56-0.92,0.91c-0.01,0.13-0.01,0.28-0.01,0.45
			s0,0.35,0,0.52c0,0.88,0.05,1.65,0.17,2.32c0.11,0.67,0.29,1.22,0.54,1.67c0.25,0.45,0.59,0.78,1,1.01
			c0.42,0.23,0.92,0.34,1.53,0.34c0.53,0,1-0.1,1.41-0.31c0.41-0.21,0.76-0.5,1.04-0.87c0.28-0.37,0.49-0.83,0.64-1.37
			C321.67,30.47,321.74,29.87,321.74,29.21z"/>
		<path d="M336.52,34.7c0,0.07-0.02,0.12-0.05,0.16c-0.03,0.05-0.08,0.08-0.16,0.12c-0.07,0.03-0.17,0.06-0.3,0.07
			c-0.13,0.02-0.29,0.02-0.49,0.02c-0.2,0-0.37-0.01-0.5-0.02c-0.13-0.02-0.23-0.04-0.31-0.07c-0.07-0.03-0.13-0.07-0.16-0.12
			c-0.03-0.04-0.05-0.1-0.05-0.16v-4.82h-5.6v4.82c0,0.07-0.02,0.12-0.05,0.16c-0.03,0.05-0.09,0.08-0.16,0.12
			c-0.07,0.03-0.17,0.06-0.3,0.07c-0.13,0.02-0.3,0.02-0.5,0.02c-0.2,0-0.36-0.01-0.49-0.02c-0.13-0.02-0.23-0.04-0.31-0.07
			c-0.08-0.03-0.13-0.07-0.16-0.12c-0.03-0.04-0.04-0.1-0.04-0.16V23.72c0-0.06,0.01-0.12,0.04-0.16c0.03-0.04,0.08-0.08,0.16-0.12
			c0.08-0.04,0.18-0.06,0.31-0.07c0.13-0.01,0.29-0.02,0.49-0.02c0.2,0,0.37,0.01,0.5,0.02c0.13,0.01,0.23,0.04,0.3,0.07
			c0.07,0.04,0.13,0.08,0.16,0.12c0.03,0.04,0.05,0.1,0.05,0.16v4.46h5.6v-4.46c0-0.06,0.02-0.12,0.05-0.16
			c0.03-0.04,0.09-0.08,0.16-0.12c0.07-0.04,0.17-0.06,0.31-0.07c0.13-0.01,0.3-0.02,0.5-0.02c0.19,0,0.36,0.01,0.49,0.02
			c0.13,0.01,0.23,0.04,0.3,0.07c0.07,0.04,0.13,0.08,0.16,0.12c0.03,0.04,0.05,0.1,0.05,0.16V34.7z"/>
		<path d="M342.27,27.59c0.3-0.02,0.6-0.04,0.91-0.05c0.31-0.01,0.64-0.02,1-0.02c0.87,0,1.61,0.09,2.23,0.26
			c0.62,0.17,1.13,0.42,1.53,0.75c0.4,0.32,0.7,0.71,0.88,1.16c0.19,0.45,0.28,0.96,0.28,1.52c0,0.56-0.1,1.09-0.3,1.57
			c-0.2,0.49-0.51,0.91-0.94,1.27c-0.43,0.36-0.97,0.64-1.64,0.85c-0.67,0.21-1.47,0.31-2.4,0.31c-0.22,0-0.44,0-0.66-0.01
			c-0.22,0-0.43-0.01-0.65-0.02c-0.21-0.01-0.42-0.03-0.63-0.04c-0.21-0.02-0.42-0.04-0.63-0.06c-0.34-0.04-0.6-0.15-0.76-0.33
			c-0.16-0.18-0.24-0.45-0.24-0.82V23.72c0-0.06,0.01-0.12,0.04-0.16c0.03-0.04,0.08-0.08,0.16-0.12c0.08-0.04,0.18-0.06,0.31-0.07
			c0.13-0.01,0.28-0.02,0.47-0.02c0.39,0,0.66,0.03,0.81,0.09c0.15,0.06,0.23,0.16,0.23,0.29V27.59z M347,31.35
			c0-0.33-0.05-0.64-0.15-0.91c-0.1-0.27-0.27-0.5-0.5-0.7c-0.23-0.19-0.54-0.34-0.92-0.44c-0.38-0.1-0.85-0.15-1.4-0.15
			c-0.33,0-0.64,0.01-0.93,0.02c-0.28,0.02-0.56,0.04-0.83,0.06v4.22c0.28,0.03,0.57,0.06,0.84,0.09c0.28,0.02,0.61,0.04,1.01,0.04
			c0.99,0,1.72-0.2,2.18-0.59C346.77,32.59,347,32.05,347,31.35z M353.16,34.7c0,0.07-0.02,0.12-0.05,0.16
			c-0.03,0.05-0.09,0.08-0.16,0.12c-0.07,0.03-0.17,0.06-0.31,0.07c-0.13,0.02-0.3,0.02-0.5,0.02c-0.2,0-0.36-0.01-0.49-0.02
			c-0.13-0.02-0.23-0.04-0.31-0.07c-0.08-0.03-0.13-0.07-0.16-0.12c-0.03-0.04-0.04-0.1-0.04-0.16V23.72c0-0.06,0.01-0.12,0.04-0.16
			c0.03-0.04,0.08-0.08,0.16-0.12c0.08-0.04,0.18-0.06,0.31-0.07c0.13-0.01,0.29-0.02,0.49-0.02c0.2,0,0.37,0.01,0.5,0.02
			c0.13,0.01,0.23,0.04,0.31,0.07c0.07,0.04,0.13,0.08,0.16,0.12c0.03,0.04,0.05,0.1,0.05,0.16V34.7z"/>
		<path d="M366.67,34.71c0,0.06-0.02,0.11-0.05,0.16c-0.03,0.05-0.09,0.09-0.16,0.12c-0.07,0.03-0.17,0.05-0.3,0.07
			c-0.13,0.02-0.29,0.02-0.49,0.02c-0.2,0-0.36-0.01-0.49-0.02c-0.13-0.02-0.23-0.04-0.32-0.07c-0.08-0.03-0.14-0.07-0.17-0.12
			c-0.03-0.05-0.05-0.1-0.05-0.16V28.4c0-0.32,0.01-0.64,0.03-0.97c0.01-0.33,0.04-0.65,0.06-0.97c-0.19,0.32-0.39,0.64-0.62,0.96
			c-0.22,0.31-0.45,0.62-0.68,0.93l-4.66,6.37c-0.06,0.07-0.11,0.12-0.15,0.17c-0.04,0.05-0.1,0.09-0.17,0.12
			c-0.07,0.03-0.16,0.05-0.26,0.06c-0.11,0.01-0.24,0.02-0.39,0.02c-0.18,0-0.33-0.01-0.44-0.02c-0.11-0.02-0.21-0.04-0.27-0.07
			c-0.07-0.03-0.12-0.07-0.15-0.12c-0.03-0.05-0.04-0.1-0.04-0.16v-11c0-0.06,0.01-0.11,0.04-0.16c0.03-0.05,0.08-0.09,0.16-0.12
			c0.08-0.03,0.18-0.05,0.31-0.07c0.13-0.01,0.29-0.02,0.48-0.02c0.39,0,0.66,0.03,0.8,0.09c0.15,0.06,0.22,0.15,0.22,0.27v6.36
			c0,0.32-0.01,0.63-0.03,0.94c-0.02,0.31-0.04,0.62-0.06,0.93c0.19-0.31,0.38-0.61,0.57-0.91c0.19-0.3,0.4-0.59,0.62-0.87
			l4.72-6.45c0.05-0.06,0.1-0.12,0.15-0.17c0.05-0.05,0.12-0.09,0.2-0.12c0.08-0.03,0.17-0.05,0.27-0.06
			c0.11-0.01,0.24-0.02,0.42-0.02c0.17,0,0.31,0.01,0.43,0.02c0.12,0.01,0.21,0.03,0.28,0.07c0.07,0.03,0.12,0.07,0.15,0.12
			c0.03,0.05,0.04,0.11,0.04,0.17V34.71z M365.59,18.54c0,0.46-0.07,0.9-0.21,1.31c-0.14,0.41-0.36,0.76-0.66,1.07
			c-0.3,0.31-0.69,0.55-1.16,0.72c-0.47,0.18-1.04,0.26-1.72,0.26c-0.62,0-1.16-0.08-1.63-0.23c-0.47-0.15-0.86-0.38-1.17-0.66
			c-0.31-0.29-0.55-0.64-0.71-1.05c-0.16-0.42-0.24-0.88-0.24-1.4c0-0.08,0.01-0.15,0.04-0.21c0.03-0.06,0.08-0.1,0.16-0.13
			c0.08-0.03,0.18-0.06,0.3-0.07c0.13-0.02,0.28-0.02,0.46-0.02c0.2,0,0.35,0.01,0.46,0.03c0.11,0.02,0.2,0.05,0.26,0.09
			c0.06,0.04,0.1,0.09,0.12,0.16c0.02,0.06,0.03,0.14,0.03,0.23c0,0.26,0.04,0.5,0.12,0.72c0.08,0.22,0.21,0.41,0.37,0.57
			c0.17,0.16,0.37,0.29,0.6,0.38c0.23,0.09,0.51,0.13,0.82,0.13c0.3,0,0.57-0.04,0.8-0.13c0.23-0.09,0.43-0.22,0.59-0.38
			c0.16-0.16,0.29-0.36,0.37-0.59c0.08-0.23,0.12-0.47,0.12-0.73c0-0.08,0.01-0.15,0.03-0.21c0.02-0.06,0.06-0.11,0.12-0.15
			c0.06-0.04,0.15-0.07,0.26-0.09c0.11-0.02,0.26-0.03,0.45-0.03c0.19,0,0.36,0.01,0.48,0.02c0.13,0.02,0.23,0.04,0.3,0.07
			c0.08,0.03,0.13,0.08,0.17,0.13C365.58,18.39,365.59,18.46,365.59,18.54z"/>
		<path d="M387.36,38.74c-0.01,0.09-0.08,0.16-0.22,0.2c-0.14,0.04-0.35,0.07-0.62,0.07c-0.3,0-0.52-0.02-0.66-0.07
			c-0.14-0.05-0.21-0.11-0.21-0.2v-3.73h-8.98c-0.19,0-0.35-0.06-0.46-0.18c-0.11-0.12-0.16-0.29-0.16-0.53V23.72
			c0-0.06,0.01-0.12,0.04-0.16c0.03-0.04,0.08-0.08,0.16-0.12c0.08-0.04,0.18-0.06,0.31-0.07c0.13-0.01,0.29-0.02,0.49-0.02
			c0.2,0,0.37,0.01,0.5,0.02c0.13,0.01,0.23,0.04,0.3,0.07c0.07,0.04,0.13,0.08,0.16,0.12c0.03,0.04,0.05,0.1,0.05,0.16v9.55h5.26
			v-9.55c0-0.06,0.02-0.12,0.05-0.16c0.03-0.04,0.09-0.08,0.16-0.12c0.08-0.04,0.18-0.06,0.31-0.07c0.13-0.01,0.29-0.02,0.49-0.02
			c0.2,0,0.37,0.01,0.5,0.02c0.13,0.01,0.23,0.04,0.3,0.07c0.07,0.04,0.13,0.08,0.16,0.12c0.03,0.04,0.05,0.1,0.05,0.16v9.55h1.52
			c0.2,0,0.32,0.04,0.39,0.11c0.06,0.07,0.1,0.2,0.1,0.39V38.74z"/>
		<path d="M398.71,28.74c0,0.32-0.08,0.54-0.24,0.68c-0.16,0.13-0.34,0.2-0.54,0.2h-7.23c0,0.61,0.06,1.16,0.19,1.65
			c0.12,0.49,0.33,0.91,0.61,1.26c0.29,0.35,0.66,0.62,1.12,0.81c0.46,0.19,1.02,0.28,1.68,0.28c0.52,0,0.99-0.04,1.4-0.13
			c0.41-0.09,0.76-0.18,1.06-0.29c0.3-0.11,0.54-0.2,0.74-0.29c0.19-0.08,0.34-0.13,0.44-0.13c0.06,0,0.11,0.01,0.15,0.04
			c0.04,0.03,0.08,0.07,0.1,0.13c0.02,0.06,0.04,0.14,0.05,0.24c0.01,0.1,0.02,0.23,0.02,0.37c0,0.11,0,0.2-0.01,0.27
			c-0.01,0.08-0.02,0.15-0.03,0.21c-0.01,0.06-0.03,0.12-0.06,0.16c-0.03,0.05-0.06,0.1-0.11,0.14c-0.05,0.04-0.18,0.12-0.4,0.22
			c-0.22,0.1-0.5,0.2-0.85,0.3c-0.35,0.1-0.75,0.19-1.21,0.26c-0.46,0.08-0.95,0.12-1.47,0.12c-0.9,0-1.7-0.13-2.37-0.38
			c-0.68-0.25-1.25-0.63-1.71-1.12c-0.46-0.5-0.81-1.12-1.05-1.87c-0.24-0.75-0.35-1.62-0.35-2.61c0-0.94,0.12-1.79,0.37-2.54
			c0.25-0.75,0.6-1.39,1.05-1.92c0.46-0.52,1.02-0.93,1.67-1.21c0.65-0.28,1.38-0.42,2.18-0.42c0.86,0,1.6,0.14,2.2,0.42
			c0.61,0.28,1.1,0.65,1.49,1.12c0.39,0.47,0.68,1.02,0.86,1.65c0.18,0.63,0.27,1.3,0.27,2.02V28.74z M396.69,28.14
			c0.02-1.06-0.21-1.89-0.71-2.49c-0.5-0.6-1.23-0.9-2.2-0.9c-0.5,0-0.94,0.09-1.31,0.28c-0.38,0.19-0.69,0.44-0.94,0.74
			c-0.25,0.31-0.45,0.67-0.59,1.08c-0.14,0.41-0.22,0.84-0.23,1.29H396.69z"/>
		<path d="M411.4,34.7c0,0.07-0.02,0.12-0.05,0.16c-0.03,0.05-0.08,0.08-0.16,0.12c-0.07,0.03-0.17,0.06-0.3,0.07
			c-0.13,0.02-0.29,0.02-0.49,0.02c-0.2,0-0.37-0.01-0.5-0.02c-0.13-0.02-0.23-0.04-0.31-0.07c-0.07-0.03-0.13-0.07-0.16-0.12
			c-0.03-0.04-0.05-0.1-0.05-0.16v-4.82h-5.6v4.82c0,0.07-0.02,0.12-0.05,0.16c-0.03,0.05-0.08,0.08-0.16,0.12
			c-0.07,0.03-0.17,0.06-0.3,0.07c-0.13,0.02-0.3,0.02-0.5,0.02c-0.2,0-0.36-0.01-0.49-0.02c-0.13-0.02-0.23-0.04-0.31-0.07
			c-0.08-0.03-0.13-0.07-0.16-0.12c-0.03-0.04-0.04-0.1-0.04-0.16V23.72c0-0.06,0.01-0.12,0.04-0.16c0.03-0.04,0.08-0.08,0.16-0.12
			c0.08-0.04,0.18-0.06,0.31-0.07c0.13-0.01,0.29-0.02,0.49-0.02c0.2,0,0.37,0.01,0.5,0.02c0.13,0.01,0.23,0.04,0.3,0.07
			c0.07,0.04,0.13,0.08,0.16,0.12c0.03,0.04,0.05,0.1,0.05,0.16v4.46h5.6v-4.46c0-0.06,0.01-0.12,0.05-0.16
			c0.03-0.04,0.09-0.08,0.16-0.12c0.07-0.04,0.18-0.06,0.31-0.07c0.13-0.01,0.3-0.02,0.5-0.02c0.2,0,0.36,0.01,0.49,0.02
			c0.13,0.01,0.23,0.04,0.3,0.07c0.07,0.04,0.13,0.08,0.16,0.12c0.03,0.04,0.05,0.1,0.05,0.16V34.7z"/>
		<path d="M422.82,24.32c0,0.16-0.01,0.3-0.02,0.41c-0.02,0.11-0.04,0.21-0.08,0.28c-0.04,0.07-0.08,0.13-0.13,0.16
			c-0.05,0.04-0.11,0.06-0.18,0.06h-3.29v9.47c0,0.07-0.01,0.12-0.05,0.16c-0.03,0.05-0.09,0.08-0.16,0.12
			c-0.07,0.03-0.18,0.06-0.3,0.07c-0.13,0.02-0.3,0.02-0.5,0.02c-0.2,0-0.36-0.01-0.49-0.02c-0.13-0.02-0.23-0.04-0.31-0.07
			c-0.08-0.03-0.13-0.07-0.16-0.12c-0.03-0.04-0.04-0.1-0.04-0.16v-9.47h-3.29c-0.07,0-0.12-0.02-0.18-0.06
			c-0.05-0.04-0.1-0.09-0.13-0.16c-0.03-0.07-0.06-0.17-0.08-0.29c-0.02-0.12-0.03-0.26-0.03-0.42c0-0.15,0.01-0.28,0.03-0.39
			c0.02-0.11,0.05-0.21,0.09-0.29c0.04-0.08,0.08-0.13,0.13-0.17c0.05-0.04,0.11-0.05,0.17-0.05h8.6c0.07,0,0.12,0.02,0.18,0.05
			c0.05,0.04,0.1,0.09,0.13,0.17c0.03,0.08,0.06,0.18,0.08,0.29C422.81,24.04,422.82,24.17,422.82,24.32z"/>
		<path d="M434.91,29.04c0,0.96-0.1,1.82-0.31,2.59c-0.21,0.76-0.51,1.41-0.92,1.95c-0.4,0.53-0.9,0.94-1.49,1.23
			c-0.59,0.29-1.27,0.43-2.04,0.43c-0.33,0-0.63-0.03-0.9-0.1c-0.28-0.07-0.55-0.17-0.81-0.31c-0.26-0.14-0.53-0.31-0.79-0.52
			c-0.26-0.21-0.54-0.46-0.83-0.74v5.49c0,0.07-0.02,0.12-0.05,0.17c-0.03,0.05-0.08,0.09-0.16,0.12c-0.07,0.03-0.17,0.06-0.3,0.07
			c-0.13,0.02-0.3,0.02-0.5,0.02c-0.2,0-0.36-0.01-0.49-0.02c-0.13-0.02-0.23-0.04-0.31-0.07c-0.08-0.03-0.13-0.07-0.16-0.12
			c-0.03-0.05-0.04-0.11-0.04-0.17V23.72c0-0.07,0.01-0.13,0.04-0.18c0.02-0.04,0.07-0.08,0.15-0.12c0.07-0.03,0.17-0.05,0.28-0.07
			c0.11-0.01,0.25-0.02,0.42-0.02c0.17,0,0.31,0.01,0.42,0.02c0.11,0.01,0.2,0.03,0.27,0.07c0.07,0.03,0.12,0.07,0.15,0.12
			c0.03,0.04,0.04,0.1,0.04,0.18v1.48c0.33-0.34,0.65-0.64,0.96-0.89c0.31-0.25,0.62-0.46,0.93-0.63c0.31-0.17,0.63-0.29,0.96-0.38
			c0.33-0.08,0.68-0.13,1.04-0.13c0.8,0,1.47,0.15,2.04,0.46c0.56,0.31,1.02,0.73,1.37,1.27c0.35,0.54,0.61,1.16,0.77,1.87
			C434.82,27.49,434.91,28.25,434.91,29.04z M432.82,29.27c0-0.56-0.04-1.1-0.13-1.63c-0.09-0.52-0.23-0.99-0.44-1.4
			c-0.21-0.41-0.49-0.73-0.84-0.98c-0.35-0.24-0.79-0.37-1.31-0.37c-0.26,0-0.52,0.04-0.77,0.12c-0.25,0.08-0.51,0.2-0.77,0.37
			c-0.26,0.17-0.54,0.39-0.82,0.66c-0.29,0.27-0.59,0.61-0.91,1.01v4.37c0.56,0.68,1.08,1.19,1.58,1.55s1.02,0.54,1.57,0.54
			c0.51,0,0.94-0.12,1.31-0.37c0.36-0.24,0.66-0.57,0.88-0.98c0.23-0.41,0.39-0.86,0.5-1.37C432.77,30.29,432.82,29.79,432.82,29.27
			z"/>
	</g>
	<path class="st2" d="M108.07,111.19c-1.98-0.4-3.36-1.28-4.45-3.99c6.5-2.98,12.81-8.25,14.38-15.53
		c-1.98-0.53-4.37-0.36-5.36-2.31c-4.9-8.46-6.56-20-10.39-29.54c-1.79-0.25-4.74,0.64-5.48-0.68c-0.48,2.48-0.56,5.38-1.71,7.19
		c-1.28-0.54-2.89-0.75-4.45-1.03c0-1.71,0-3.42,0-5.13c-2.74,0-5.48,0-8.22,0c0.17,10.46-1.4,22.12,0.35,31.1
		c-14.87,3.47-6.66-20.42-7.88-31.1c-2.62,0-5.25,0-7.87,0c-0.45,2.06-0.63,4.39-1.37,6.16c-1.3-0.64-3.45-0.43-4.45-1.37
		c0.14-2.59-0.34-5.82,0.34-7.87c8.33-5.21,26.02-4.64,34.93-0.34c2.6-2.29,6.69-3.86,10.88-3.47c3,3.01,4.48,10.05,6.4,15.78
		c1.51,5.8,3.53,11.42,5.47,16.78c0.9-3.86,2.4-11.36,3.98-18.7c1.5-6.98,2.89-13.02,5.5-13.81c2.72,0.19,4.19,0.9,5.1,2.73
		c-6.48,18.63-6.33,43.88-21.23,54.1C111.03,111.1,109.54,111.5,108.07,111.19z"/>
	<path class="st2" d="M171.5,84.71c1.97,0.09,5.47,0.3,6.92,0.9c0.45,5.52-1.7,13.98-2.51,16.96c-2.07-0.43-3.41-0.18-4.84-0.97
		c0-3.88,0-7.46,0-11.33c-7.44,1.89-19.57,1.56-27.06,0.42c-0.03,3.25-0.65,7.7-1.98,12.06c-1.66-0.51-3.47-0.49-5.2-1.15
		c0-5.48,0-10.96,0-16.44c10.18-1.57,9.49-14.94,11.03-25.15c-1.38-0.12-3.27-0.02-4.87-0.12c-0.61-0.88-0.26-2.72-1.03-3.42
		c6.27-3.59,21.26-4.9,26.71,0.34C171.79,62.96,170.52,75.42,171.5,84.71z M154.29,59.89c-0.99,8.83-0.92,19.32-5.14,24.92
		c4.91,0,9.82,0,14.72,0c-0.37-7.84,0.13-16.36-1.03-24.24C160.2,60.15,157.53,59.73,154.29,59.89z"/>
	<linearGradient id="SVGID_3_" gradientUnits="userSpaceOnUse" x1="318.3692" y1="51.4967" x2="318.3692" y2="114.406">
		<stop  offset="0" style="stop-color:#008FD7"/>
		<stop  offset="1" style="stop-color:#004D9F"/>
	</linearGradient>
	<path class="st3" d="M330.25,70.12c2.12,1.08,3.84,2.45,5.03,4.17c1.27,1.84,2.73,5.29,0,10.27c-2.63,4.1-6.97,6.36-13.02,7.04
		c-5.66,0.44-11.5,0.67-15.07-1.58c-3.46-5.74-0.9-20.27-1.1-29.44c-2.21,0-4.13,0-5.61,0c-0.01-0.8-0.33-2.54-0.58-3.42
		c11.72-4.39,38.21-8.23,34.34,8.56C333.67,67.37,332.58,69.12,330.25,70.12z M313.37,69.44c3.1-0.67,7.83-0.7,11.29-0.29
		c5.99-7.71-2.18-11.03-11-8.56C313.48,63.72,313.47,66.13,313.37,69.44z M313.22,74.18c-0.13,3.44-0.21,6.5-0.31,9.7
		c6.41,1.04,16.96,1.03,15.52-5.82C326.77,73.34,319.25,73.52,313.22,74.18z"/>
	<linearGradient id="SVGID_4_" gradientUnits="userSpaceOnUse" x1="361.7803" y1="50.9327" x2="361.7803" y2="114.7683">
		<stop  offset="0" style="stop-color:#008FD7"/>
		<stop  offset="1" style="stop-color:#004D9F"/>
	</linearGradient>
	<path class="st4" d="M354.69,55.89c0.12,7.8-0.6,16.75-0.81,25.03c1.53-2.65,5.49-9.8,9.37-16.17c3.21-5.26,6.37-10.28,8.77-11.29
		c1.56-0.34,4.47,0.63,5.71,1.43c1.14,3.66-1.18,20.67-0.69,30.46c1.37,0,3.74,0,5.76,0c0.05,1.26,0.5,2.47,0.68,3.76
		c-3.69,1.8-9.18,4.42-13.62,1.94c-0.79-7.96,0.49-18.37,0.68-27.05c-5.6,9.34-10.26,19.64-17.12,27.74
		c-2.82,0.79-5.49-0.08-6.85-1.72c-1.26-9.11,0.5-19.54,0.34-29.45c-2.06,0-4.11,0-6.16,0c-0.06-0.78-0.35-2.4-0.68-3.42
		c2.56-1.31,6.94-3.8,10.73-3.85C352.22,53.28,354.65,53.66,354.69,55.89z"/>
	<g>
		<linearGradient id="SVGID_5_" gradientUnits="userSpaceOnUse" x1="413.4727" y1="51.345" x2="413.4727" y2="114.491">
			<stop  offset="0" style="stop-color:#008FD7"/>
			<stop  offset="1" style="stop-color:#004D9F"/>
		</linearGradient>
		<path class="st5" d="M413.47,101.83c-15.57,0-28.24-12.67-28.24-28.24c0-15.57,12.67-28.24,28.24-28.24
			c15.57,0,28.25,12.67,28.25,28.24C441.72,89.16,429.05,101.83,413.47,101.83z M413.47,47.61c-14.32,0-25.97,11.65-25.97,25.97
			c0,14.32,11.65,25.97,25.97,25.97c14.32,0,25.97-11.65,25.97-25.97C439.44,59.27,427.79,47.61,413.47,47.61z"/>
	</g>
	<path class="st2" d="M44.05,33.15c-14.36,0-31.24,11.06-29.62,32.32c1.56,20.47,19.53,27.78,31.77,25.85
		c9.48-1.49,13.11-7.08,13.11-7.08s-0.9-2.18-1.71-3.53c-10.85,6.28-30.25,5.09-33.84-13.82C20.32,48.75,34.19,37.41,51.1,40.64
		c0,2.83,0,5.82,0,5.82l5.14,1.03c0,0,1.14-4.52,1.71-9.25C55.76,35.99,51.68,33.15,44.05,33.15z"/>
	<linearGradient id="SVGID_6_" gradientUnits="userSpaceOnUse" x1="275.1462" y1="51.3493" x2="275.1462" y2="114.4906">
		<stop  offset="0" style="stop-color:#008FD7"/>
		<stop  offset="1" style="stop-color:#004D9F"/>
	</linearGradient>
	<path class="st6" d="M276.73,53.74c-2.76,0.56-4.95,1.67-6.51,3.42c-1.92-7.38-11.94-2.13-15.07,0c0.34,0.92,0.59,1.99,0.74,3.42
		c2.1-0.03,5.05,0,6.11,0c-0.04,1.25-1.64,45.79-1.64,45.79l-0.08,2.15c-0.06,1.23,1.22,3.46,4.8,2.74
		c3.57-0.73,9.61-3.13,9.93-3.42c-0.46-1.65-0.74-3.84-0.74-3.84s-3.32-0.05-6.09-0.05l0.47-14.52c3.83,2.61,11.25,2.59,16.05,0.92
		C299.91,85.08,299.52,49.08,276.73,53.74z M281.51,83.49c-3.32,1.47-8.09,1.55-12.57,0.63c-0.04-0.18-0.06-0.36-0.1-0.55l0.7-21.62
		c4.83-2.36,12.58-2.35,15.07,2.06C288.16,69.31,287.32,80.91,281.51,83.49z"/>
	<linearGradient id="SVGID_7_" gradientUnits="userSpaceOnUse" x1="411.4482" y1="51.3447" x2="411.4482" y2="114.4899">
		<stop  offset="0" style="stop-color:#008FD7"/>
		<stop  offset="1" style="stop-color:#004D9F"/>
	</linearGradient>
	<path class="st7" d="M425.23,82.42c-5.49,2.96-20.09,5.68-22.26-7.88c-2.28-14.29,11.84-16.56,18.15-13.96c0,2.34,0,5.05,0,5.05
		s3.09,0.5,5.17,0.28c0.39-2.5,1.53-6.94,1.34-8.84c-11.78-8.3-33.78-2.41-32.31,17.78c1.48,20.19,24.93,19.8,32.31,10.99
		C426.61,84.32,425.79,83.16,425.23,82.42z"/>
</g>
</svg>
